<svg width="431" height="26" viewBox="0 0 431 26" fill="none" xmlns="http://www.w3.org/2000/svg">
<path d="M4.42997 3.51472C6.86636 3.54612 10.0157 4.05632 12.397 4.57315C13.1434 4.73418 12.7233 5.09904 13.2368 5.22825C14.2412 5.48046 15.2093 5.37353 16.1989 5.65442C16.5266 5.74947 16.0511 6.34536 16.3962 6.43048C18.2875 6.89241 20.1172 6.90208 22.0472 7.22068C31.5539 8.79108 40.938 9.9184 50.5974 11.1231C53.7824 11.5198 57.6105 12.4631 60.9334 12.5228C61.3213 12.5292 61.1444 11.95 61.222 11.911C62.4377 11.3162 61.9493 12.4055 62.6855 12.626C65.6079 13.4978 68.9148 13.8621 71.8012 13.9178C73.0294 13.9398 71.9114 12.717 73.0805 13.4545C73.1618 13.5046 72.7964 14.0673 73.1249 14.1621C73.8698 14.3758 75.3185 14.4059 75.9018 14.5083C77.0257 14.7088 77.2137 14.7205 78.2844 14.8285C78.8536 14.8879 79.4607 14.9937 80.0834 15.1016C81.0481 15.2698 82.0529 15.4366 83.0082 15.4316C83.3418 15.428 82.9531 14.7852 83.4882 14.724C84.0236 14.6638 85.4138 14.8182 85.8751 14.9927C86.3363 15.1683 86.1038 15.6326 86.1798 15.7478C86.8082 16.7208 88.5124 15.5361 88.7195 15.5145C92.542 15.1835 95.7693 16.0133 99.3489 16.0439C102.063 16.0647 104.96 15.7923 107.538 15.7519C110.609 15.7054 113.23 15.9103 116.211 15.6565C116.525 15.6301 116.109 14.9399 116.492 14.906C120.558 14.5448 124.589 14.2376 128.689 14.2205C129.1 14.2192 128.654 14.9085 129.071 14.9442C130.982 15.1007 133.788 15.5145 135.515 14.4523C136.093 14.0995 136.552 13.5881 136.82 12.8555C138.533 12.7006 140.61 12.4935 142.211 12.8063C143.244 13.0073 142.398 13.8309 143.555 13.3571C143.817 13.251 143.373 12.7118 143.772 12.5976C145.45 12.1174 147.351 12.023 148.997 11.4563C149.332 11.3396 149.156 10.8223 149.239 10.7116C149.94 9.81016 151.503 10.8823 151.815 10.9297C154.189 11.2761 155.802 10.7485 157.917 10.4411C158.408 10.37 157.719 9.74479 158.187 9.65078C160.617 9.17277 163.16 8.84502 165.604 8.79412C166.147 8.78451 165.751 9.46814 166.016 9.49468C167.181 9.60429 167.254 8.41699 168.368 8.49993C168.603 8.51593 168.555 9.0564 168.606 9.10723C169.391 9.90563 169.759 8.5469 169.921 8.49322C171.97 7.78565 173.522 8.90689 175.529 8.40604C175.769 8.34478 175.119 7.77016 175.8 7.63826C180.334 6.7556 185.187 6.19552 189.785 6.02901C190.499 6.00224 190.074 6.57426 190.128 6.62851C190.994 7.47143 191.264 6.12224 191.485 6.03897C193.239 5.41521 195.09 6.2275 196.084 4.51728C202.387 3.98992 208.526 2.54695 214.804 2.13948C216.245 2.04422 217.693 2.02113 219.146 2.09343C219.246 2.0969 219.151 2.75058 219.349 2.75489C221.733 2.82234 221.161 1.89866 222.601 0.52521C222.968 0.179974 224.313 1.5161 224.426 1.61401C224.847 1.97083 224.537 2.95116 224.672 3.01521C225.784 3.51635 225.332 0.40945 226.788 0.29005C226.833 0.291657 226.689 0.881469 226.815 0.928952C227.206 1.07844 227.562 0.821644 227.946 0.992795C228.825 1.39075 229.217 2.8875 230.444 1.92782C230.6 1.80453 230.247 0.0414433 231.551 0.0577458C232.07 0.0624458 234.361 -0.0608333 235.006 0.0398213C235.651 0.136518 235.226 0.721358 235.273 0.744796C237.01 1.45796 236.366 1.78917 237.238 2.89366C238.104 3.99743 237.833 1.33855 238.181 1.03719C238.53 0.735851 239.794 1.35522 240.1 1.57411C240.408 1.79193 240.023 2.15494 240.296 2.27848C242.099 3.09122 241.101 0.961227 241.706 0.543581C243.145 -0.440483 244.215 1.5609 245.493 1.79786C245.84 1.86232 245.571 1.40265 245.884 1.37187C247.127 1.25824 247.837 1.90695 249.271 1.4217C249.504 1.34205 250.721 0.226255 251.399 1.1486C251.494 1.28136 251.165 1.75117 251.682 1.89868C252.454 2.11906 253.853 2.34064 254.708 2.25468C255.323 2.19234 254.734 1.36176 255.406 1.6183C255.424 1.62515 255.443 1.63278 255.462 1.64122C255.797 1.78598 255.112 2.19756 255.744 2.43012C256.373 2.66229 258.024 2.79811 258.653 2.84137C259.281 2.88417 258.996 2.2392 259.051 2.20275C259.379 1.99549 260.609 1.8143 260.716 1.82512C266.08 2.25907 270.923 3.76048 276.172 3.91411C276.584 3.92705 276.373 3.25535 276.436 3.25066C277.863 3.11315 276.595 4.72529 277.52 5.39297C277.503 4.069 278.058 4.36117 279.059 4.31117C279.541 4.28602 279.33 3.75397 279.379 3.70614C280.157 3.00237 280.554 4.04454 280.661 4.26021C281.057 5.05372 281.65 4.21683 281.92 4.74776C282.191 5.27493 281.39 5.94229 282.337 6.02275C282.647 5.57883 282.061 4.28613 282.798 4.15569C285.582 3.66163 290.553 5.10421 292.724 5.41118C294.891 5.71765 295.602 5.69784 296.855 5.98779C299.116 6.51184 298.363 5.52255 299.825 5.24126C301.291 4.96041 300.385 7.13258 300.544 7.63316C300.7 8.13316 300.967 7.659 301.192 7.94714C301.417 8.23513 300.845 8.51095 301.423 8.66593C302.001 8.82084 303.688 8.11777 303.944 7.63448C304.485 6.61051 303.868 5.42324 305.384 5.96382C305.471 5.99563 305.125 6.55657 305.462 6.64854C308.137 7.35966 310.958 7.65586 313.635 8.31432C314.003 8.40577 313.607 9.02874 313.821 9.08937C316.044 9.72296 315.34 8.54232 316.696 7.43385C316.263 9.03925 316.854 10.1027 318.571 10.2754C319.602 10.3798 319.492 9.65024 320.208 9.21133C320.422 9.07892 321.106 9.63765 321.271 9.31504C321.811 8.26085 321.24 6.96901 322.964 7.62551C323.039 7.6561 322.735 8.23235 323 8.29416C324.713 8.69664 325.029 7.57033 326.918 7.60962C328.398 7.6403 330.946 8.58739 332.61 8.85998C332.518 9.66166 332.777 10.0607 333.161 10.1549C333.658 10.2813 334.362 9.90663 334.797 9.23398C335.876 9.39973 337.056 9.45144 338.087 9.73631C338.441 9.83378 338.148 10.3395 338.188 10.4016C338.792 11.3744 339.393 10.1945 339.632 10.171C342.22 9.96915 344.191 11.1183 346.709 10.4622C346.799 10.4384 347.072 9.17991 347.622 10.1775C347.657 10.246 346.796 10.7412 347.931 10.9057C349.066 11.0704 351.144 11.9787 352.788 11.555C353.186 11.4532 354.263 10.5214 354.956 11.4106C355.048 11.5312 354.896 11.8844 355.025 12.1033C355.44 12.8015 355.839 11.5424 356.292 12.6953C356.746 13.8482 357.841 14.791 359.517 14.2045C359.57 14.1879 360.055 13.2076 360.555 13.2765C361.353 13.3873 362.468 13.7193 363.306 13.8005C363.707 13.839 363.517 13.1788 363.588 13.1745C366.318 13.1026 368.176 13.8686 371.036 14.4167C371.56 14.5185 373.17 13.8145 374.123 14.6049C375.169 15.4705 373.686 18.4583 376.349 17.9891C377.422 17.8023 379.156 13.9963 380.815 16.2368C384.501 16.1121 387.751 17.511 391.47 17.1707C391.638 17.1558 392.271 16.1093 392.655 16.1648C393.224 16.2492 393.484 16.7968 393.889 16.8735C395.583 17.2083 397.195 16.9325 398.837 17.1743C399.461 17.265 399.186 17.774 399.93 17.8822C400.673 17.9899 401.245 17.3416 402.221 17.7862C402.958 18.1244 403.571 19.6366 404.567 19.9101C404.754 18.5016 405.448 18.6039 406.725 18.3611C406.971 18.3137 406.767 17.7953 406.886 17.7475C407.371 17.5422 407.752 17.9942 408.216 17.7641C408.328 17.709 408.384 17.2271 408.479 17.1548C409.289 16.5217 410.387 17.7341 410.575 17.9449C411.298 18.7462 411.736 18.1579 412.318 18.5048C412.9 18.8515 411.949 19.1087 412.645 19.3551C414.087 19.8651 415.995 19.9868 417.495 20.1668C418.094 20.2356 417.752 19.5487 417.84 19.5436C419.096 19.5105 420.277 20.3271 421.099 19.1167C421.61 22.5233 421.88 18.8735 423.582 19.7235C423.716 19.7919 423.729 21.3788 423.169 21.5528C422.609 21.7265 421.848 21.151 421.067 21.4318C420.882 21.4975 419.72 22.8612 419.573 22.9357C418.422 23.5183 418.516 21.1586 418.472 21.0239C417.971 19.5669 416.573 21.0206 416.237 21.0959C414.7 21.4412 413.473 20.9792 412.194 21.2065C411.358 21.3525 411.117 22.8793 410.485 22.7653C408.381 22.3873 407.866 20.168 405.674 21.815C405.204 22.1661 405.453 23.8887 404.057 22.4081C403.97 22.3148 402.957 20.9881 402.219 21.6824C402.126 21.77 402.077 22.2592 401.964 22.2888C401.205 22.4778 400.759 22.037 399.943 22.14C399.128 22.2429 398.141 22.4205 397.25 22.1592C396.712 22.0025 396.105 21.0176 395.867 20.767C395.194 20.0467 394.289 21.0168 393.913 20.1905C393.532 19.3599 394.561 18.2673 393.401 17.6347C393.223 18.9004 392.983 20.1935 392.776 21.4635C390.123 21.1396 387.551 20.4541 384.879 20.23C384.547 20.2035 384.814 20.922 384.456 20.9112C382.95 20.8626 381.695 20.2385 380.124 20.2695C378.907 20.2961 377.515 20.881 376.241 20.9313C375.627 19.397 373.712 19.6949 372.373 19.4199C371.904 19.3242 371.977 18.9392 371.653 18.7772C370.431 18.1751 370.892 19.5224 370.522 19.6879C368.935 20.3936 369.113 17.4724 367.342 17.359C367.248 17.352 365.944 18.782 365.776 18.862C364.711 19.3864 365.667 18.3052 365.054 18.1249C363.934 17.7957 363.18 17.3422 361.792 17.6554C361.387 17.7488 360.349 18.6164 359.669 17.7895C359.579 17.6812 359.688 17.1746 359.611 17.1362C358.209 16.4833 358.002 18.0891 357.114 18.547C356.225 19.0047 355.059 17.7586 354.831 17.4109C354.235 16.5106 355.392 17.1118 355.437 17.0344C355.974 16.1125 355.02 16.1808 354.314 16.0239C354.376 14.4346 353.366 14.4242 353.58 15.8675C353.605 16.0254 354.177 15.9367 354.314 16.0239C353.523 17.5065 352.403 17.5893 351.341 16.0146C350.844 15.2767 351.464 14.5423 349.707 14.6502C348.91 14.6985 349.098 15.8171 348.376 16.0407C346.725 16.5508 344.779 15.3213 343.133 15.31C342.536 15.3059 343.049 15.9613 342.639 15.979C341.55 16.0278 340.651 15.4821 339.55 15.5976C339.451 15.6088 339.624 16.2566 339.288 16.2294C336.973 16.0527 334.971 15.5151 332.636 15.2013L332.682 15.2059C332.448 15.1769 332.211 15.1501 331.97 15.1262C330.688 14.9994 328.364 15.1257 327.043 14.9305C324.753 14.5958 322.008 13.4206 320.021 13.4541C318.725 13.4733 318.947 14.1235 318.357 14.4962C317.219 15.219 315.482 13.5658 315.251 13.3134C315.244 13.3051 316.362 13.2629 315.803 12.8869C315.524 12.1875 315.264 13.3117 315.251 13.3134C315.1 13.1501 312.909 12.7993 312.46 12.8769C312.216 12.9194 312.293 13.5228 312.167 13.5338C309.169 13.7826 306.202 13.6524 303.239 13.0924C303.188 13.0755 303.33 12.4222 303.208 12.3907C301.505 11.9326 300.321 12.6357 298.848 12.9801C297.375 13.3243 296.259 13.0562 295.522 11.8416C294.431 11.8822 292.934 11.234 292.074 10.8453C291.214 10.4567 290.968 11.7311 290.887 11.7491C288.37 12.3313 287.03 11.4612 284.51 11.1063C283.312 10.9354 280.907 10.8953 279.591 10.9123C278.551 10.9278 277.959 10.5675 276.992 10.6702C276.861 10.6837 276.937 11.2687 276.895 11.2871C275.771 11.8717 276.413 10.52 276.218 10.2492C275.512 9.26464 275.068 8.73386 273.672 9.03287C273.35 9.10114 272.247 11.0305 271.666 11.0943C270.91 11.1735 271.259 10.4775 270.466 10.5788C270.398 10.5868 270.37 11.0339 269.893 10.9688C267.677 10.6723 265.278 10.1827 262.963 10.008C262.647 9.9824 262.984 10.7279 262.526 10.7026C260.379 10.5832 258.036 10.3343 255.982 9.80545C255.477 9.67305 255.846 9.20852 255.748 9.05095C255.467 8.60305 255.077 8.62973 254.726 8.78515C254.341 8.96207 254.006 9.30512 253.923 9.31083C250.208 9.6095 247.457 8.27347 243.671 8.73319C243.461 8.75925 241.874 10.1204 241.187 8.92346C241.141 8.84355 240.449 7.61691 239.831 8.45227C239.793 8.50466 240.225 9.13258 239.471 9.06955C238.714 9.00687 237.511 9.43846 236.459 8.77126C236.128 8.56085 235.309 7.36111 234.356 8.36618C234.288 8.43489 232.876 10.6875 232.269 9.20271C232.17 8.95864 232.181 7.34979 231.048 8.23482C230.833 8.40666 231.259 8.74021 230.683 8.99714C229.804 9.393 228.579 9.0451 227.53 9.84507C227.346 9.98621 226.625 11.1365 225.899 10.3733C225.785 10.2538 225.932 9.70297 225.58 9.675C223.9 9.5404 222.213 10.0825 220.497 9.92353C219.888 9.869 220.083 8.97194 219.431 8.8225C218.78 8.67258 217.492 8.62606 216.899 9.11403C216.309 9.60161 217.217 10.8593 216.271 11.114C216.243 11.1217 216.214 11.1294 216.186 11.1369C211.925 12.2549 207.514 12.1246 203.172 12.6726C202.524 12.7543 203.134 13.1597 202.184 13.3151C198.68 13.8903 192.692 15.278 189.489 14.7094C186.922 14.2541 189.895 13.1507 187.979 13.0993C187.054 13.0763 186.324 14.8102 186.115 14.8935C184.071 15.726 182.489 15.2505 180.613 15.7591C180.225 15.8644 180.711 16.4472 180.38 16.5297C179.251 16.8171 178.002 16.7154 176.915 16.9361C176.427 17.0366 176.593 17.5131 176.135 17.5447C175.04 17.626 174.052 17.5667 172.927 17.269C172.824 17.2419 173.379 16.5322 172.575 16.6324C171.274 16.7964 169.596 16.5898 168.178 17.2871C167.757 17.4959 167.912 18.6195 166.842 17.9914C166.618 17.8603 166.666 16.4752 165.737 17.8083C165.58 18.0302 163.961 19.8846 162.893 19.0136C162.611 18.7845 161.828 17.7774 161.322 18.0322C161.254 18.0709 161.636 18.6286 161.204 18.755C159.681 19.1901 158.044 19.3758 156.477 19.8095C156.059 19.9264 156.789 20.4521 156.163 20.6065C154.441 21.0322 152.236 21.2084 150.499 21.2757C149.858 21.2993 150.214 20.7163 150.159 20.6672C149.282 19.8667 149.036 21.1667 148.803 21.2762C147.348 21.9403 146.101 21.5389 144.723 21.9074C144.343 22.0076 144.707 22.5534 144.638 22.6177C143.918 23.2526 144.351 22.1053 143.828 22.0666C142.361 21.9545 140.79 22.2442 139.369 22.5392C138.848 22.6485 139.543 23.2395 139.074 23.3296C138.369 23.4685 137.655 23.5966 136.937 23.7112C134.759 24.0584 132.536 24.2571 130.397 24.2387C129.857 24.2326 130.126 23.6639 130.001 23.5572C129.138 22.8095 128.163 24.0891 127.916 24.2279C126.802 24.8612 126.295 24.4432 125.271 24.6378C120.259 25.6044 113.955 25.7131 109.161 25.6714C102.905 25.6237 98.0754 25.0954 92.1369 25.0069C91.7591 24.9997 92.1121 25.7209 91.7854 25.7235C87.563 25.7233 83.4389 25.1697 79.2154 24.9772C79.1892 24.9759 79.1675 24.9787 79.1494 24.9851C78.9348 25.0642 79.256 25.673 78.7545 25.6696C77.6412 25.6667 76.2466 25.4984 75.1508 25.18C74.6162 25.026 75.4003 24.5227 74.8611 24.3794C73.6057 24.0443 72.2428 23.8676 70.9224 23.8507C70.3603 23.8449 71.1372 24.6065 70.4117 24.5459C65.4682 24.147 60.6083 23.8063 55.7026 22.4516C55.3663 22.3586 55.1971 20.9441 54.4448 21.1412C54.3537 21.5207 54.3139 21.9735 54.2511 22.3824C47.043 21.9248 39.9746 20.772 32.7743 20.0167C32.4707 19.985 32.9264 20.7691 32.3383 20.7115C28.9343 20.3788 25.6085 20.2698 22.1945 19.2107C21.8557 19.1067 22.1551 17.8313 21.1182 17.9305C20.9352 17.9492 19.3851 17.9765 18.962 18.2196C18.9042 18.2568 19.127 18.8863 18.6311 18.8572C15.7502 18.6774 12.7532 18.2553 9.92079 17.6158C9.46376 17.5115 10.0173 16.9158 9.69226 16.8359C7.38649 16.274 4.79727 16.5219 2.61831 15.7277C1.16001 15.1937 1.81856 14.1359 1.12719 12.968C1.02936 12.8032 0.10567 12.6912 0.117865 12.0509C0.146007 10.4405 0.759965 8.73216 0.736961 7.01059C0.732765 6.63985 -0.544748 6.91801 0.273323 6.10036C0.330228 6.04584 1.25717 5.8364 1.50705 5.55642C1.6809 5.36294 1.46416 4.69006 1.8039 4.45347C2.1436 4.21712 2.43804 4.79182 2.98914 4.5282C3.54037 4.26069 3.38066 3.50342 4.42997 3.51472ZM288.201 9.10521C287.436 8.40937 287.1 10.6602 288.041 10.2035C288.087 10.1787 288.24 9.13955 288.201 9.10521ZM387.745 18.7508C386.775 17.641 385.885 19.0295 386.563 19.8791C387.24 20.7278 388.041 19.0874 387.745 18.7508ZM398.969 19.1942C397.795 18.2762 397.261 21.4603 398.675 20.9538C398.757 20.9254 399.038 19.2475 398.969 19.1942ZM4.84171 13.005C4.83319 12.9739 4.17031 12.8817 4.15159 12.91C3.72925 13.5951 5.05478 13.7789 4.84171 13.005ZM410.114 19.5639C409.768 19.0892 408.586 19.471 409.017 20.0613C409.363 20.5362 410.546 20.1545 410.114 19.5639ZM245.489 2.90769C245.478 2.87322 245 2.82693 245.004 3.01873C245.017 3.63566 245.685 3.4843 245.489 2.90769ZM428.919 21.5022C426.154 21.0898 424.748 18.2654 427.742 18.8819C428.284 18.9935 426.472 19.6021 427.145 19.9141C428.375 20.4829 429.396 18.9097 430.605 19.9372C430.823 20.125 429.076 21.5316 428.914 21.5054C428.916 21.5043 428.917 21.5033 428.919 21.5022ZM287.985 6.3428C287.971 6.31132 287.313 6.22024 287.294 6.24839C286.868 6.93266 288.194 7.11658 287.985 6.3428ZM217.452 2.94466C217.407 2.88449 215.863 3.04492 215.822 3.11246C215.2 4.39348 218.298 4.07476 217.452 2.94466ZM332.631 8.91142C332.857 8.7246 333.089 8.59087 333.317 8.51757L333.338 8.51966C333.909 8.34201 334.451 8.54208 334.793 9.23271C334.294 9.14605 333.79 9.07942 333.287 9.00581L333.27 9.0042C333.057 8.9752 332.844 8.94496 332.631 8.91142Z" fill="#7A60FF"/>
</svg>
